<svg xmlns="http://www.w3.org/2000/svg" viewBox="0 -36 572 572" width="572" height="572">
  <style>
    path { fill: #26573F; }
    @media (prefers-color-scheme: dark) { path { fill: #ffffff; } }
  </style>
  <path d="M281.772 5.81584C297.06 19.9125 373.682 163.796 393.02 194.289L358.614 235.341C337.13 204.543 302.171 139.288 281.882 103.74C257.743 149.772 228.249 198.826 202.119 244.172L86.2683 444.535L128.241 444.686C176.918 353.754 232.829 260.416 284.161 170.5C300.955 200.351 321.598 232.612 336.466 262.72C326.554 273.116 310.225 286.256 298.808 295.92C293.742 288.149 288.564 277.682 284.117 269.322C269.912 295.008 255.11 320.348 239.688 345.325C315.69 328.121 337.064 305.59 385.364 248.86C402.777 225.379 428.222 196.077 447.183 172.908C431.74 161.341 420.389 150.525 406.273 137.309C431.784 132.712 519.844 102.345 549.537 92.7549L523.34 240.591C511.016 228.872 496.989 216.692 484.288 205.143C393.02 315.603 361.402 381.852 211.257 396.714C193.976 429.719 173.909 461.414 156.164 495.185L0 494.924C32.9895 444.329 72.5948 369.889 103.925 315.397L281.772 5.81584Z"/>
  <path d="M450.956 289.008C458.876 295.181 556.159 470.306 572 494.972L416.773 495.185C404.45 476.078 391.905 452.682 380.245 432.662C370.267 416.36 362.014 401.135 352.987 384.265C366.749 374.331 378.94 364.505 392.148 353.808C405.135 379.799 429.318 418.64 444.871 444.444L485.581 444.446C464.031 409.565 438.676 363.944 419.096 327.913C430.136 313.352 438.544 302.337 450.956 289.008Z"/>
</svg>
